<svg width="60" height="16" viewBox="0 0 60 16" fill="none" xmlns="http://www.w3.org/2000/svg">
<path d="M17.4068 7.33974C17.4068 7.80101 17.453 8.23055 17.5452 8.62839C17.6375 9.02623 17.7874 9.37217 17.9949 9.66623C18.2025 9.96028 18.4706 10.1909 18.7993 10.3581C19.1279 10.5253 19.5229 10.6089 19.9841 10.6089C20.4223 10.6089 20.8259 10.534 21.1949 10.3841C21.564 10.2342 21.8465 10.0785 22.0425 9.91704V4.24353C21.8811 4.1974 21.6649 4.15704 21.3939 4.12245C21.1229 4.08785 20.7452 4.07055 20.2609 4.07055C19.396 4.07055 18.7041 4.35307 18.1852 4.91812C17.6663 5.48317 17.4068 6.29037 17.4068 7.33974ZM16.049 5.3765C16.2623 4.79415 16.565 4.30119 16.9571 3.89758C17.3492 3.49397 17.822 3.18263 18.3755 2.96353C18.929 2.74443 19.5517 2.63488 20.2436 2.63488C20.9931 2.63488 21.6533 2.68965 22.2241 2.7992C22.7949 2.90875 23.2706 3.00965 23.6512 3.1019V15.6481L22.0425 15.9428V11.4219C21.8465 11.5488 21.5495 11.6814 21.1517 11.8197C20.7539 11.9581 20.2955 12.0273 19.7766 12.0273C19.1308 12.0273 18.5571 11.912 18.0555 11.6814C17.5539 11.4507 17.1301 11.1279 16.7841 10.7127C16.4382 10.2976 16.1759 9.80173 15.9971 9.22515C15.8184 8.64857 15.729 8.02011 15.729 7.33974C15.729 6.61325 15.8357 5.95884 16.049 5.3765ZM33.8537 7.32244C33.8537 8.0374 33.7499 8.68316 33.5423 9.25974C33.3348 9.83632 33.0436 10.3322 32.6688 10.7473C32.294 11.1624 31.8472 11.4824 31.3283 11.7073C30.8094 11.9322 30.2443 12.0446 29.6331 12.0446C29.022 12.0446 28.4569 11.9322 27.938 11.7073C27.4191 11.4824 26.9722 11.1624 26.5975 10.7473C26.2227 10.3322 25.9315 9.83632 25.724 9.25974C25.5164 8.68316 25.4126 8.0374 25.4126 7.32244C25.4126 6.61902 25.5164 5.97614 25.724 5.3938C25.9315 4.81145 26.2227 4.31272 26.5975 3.89758C26.9722 3.48244 27.4191 3.16245 27.938 2.93758C28.4569 2.71271 29.022 2.60028 29.6331 2.60028C30.2443 2.60028 30.8094 2.71271 31.3283 2.93758C31.8472 3.16245 32.294 3.48244 32.6688 3.89758C33.0436 4.31272 33.3348 4.81145 33.5423 5.3938C33.7499 5.97614 33.8537 6.61902 33.8537 7.32244ZM32.1758 7.32244C32.1758 6.30766 31.9481 5.50335 31.4926 4.90947C31.0371 4.3156 30.4173 4.01866 29.6331 4.01866C28.849 4.01866 28.2292 4.3156 27.7737 4.90947C27.3182 5.50335 27.0904 6.30766 27.0904 7.32244C27.0904 8.33722 27.3182 9.14154 27.7737 9.73542C28.2292 10.3293 28.849 10.6262 29.6331 10.6262C30.4173 10.6262 31.0371 10.3293 31.4926 9.73542C31.9481 9.14154 32.1758 8.33722 32.1758 7.32244ZM35.6151 3.08461C35.9841 2.99235 36.4742 2.89434 37.0854 2.79055C37.6966 2.68677 38.4 2.63488 39.1957 2.63488C39.9106 2.63488 40.5045 2.73578 40.9773 2.93758C41.4501 3.13938 41.8277 3.4219 42.1103 3.78515C42.3928 4.14839 42.5917 4.5837 42.707 5.09109C42.8223 5.59848 42.88 6.15776 42.88 6.76893V11.8197H41.2713V7.11488C41.2713 6.56136 41.2339 6.08857 41.1589 5.6965C41.0839 5.30443 40.96 4.98731 40.787 4.74515C40.614 4.50298 40.3834 4.32713 40.0951 4.21758C39.8068 4.10803 39.4494 4.05326 39.0227 4.05326C38.8497 4.05326 38.671 4.05902 38.4865 4.07055C38.302 4.08208 38.1261 4.0965 37.9589 4.1138C37.7917 4.13109 37.6418 4.15127 37.5092 4.17434C37.3766 4.1974 37.2814 4.2147 37.2238 4.22623V11.8197H35.6151V3.08461ZM46.5441 2.82515H49.9517V4.17434H46.5441V8.32569C46.5441 8.77542 46.5787 9.14731 46.6479 9.44136C46.7171 9.73542 46.8209 9.96605 46.9593 10.1333C47.0976 10.3005 47.2706 10.4187 47.4782 10.4879C47.6857 10.557 47.9279 10.5916 48.2047 10.5916C48.689 10.5916 49.0782 10.5369 49.3722 10.4273C49.6663 10.3178 49.871 10.2399 49.9863 10.1938L50.2976 11.5257C50.1362 11.6064 49.8537 11.7073 49.4501 11.8284C49.0465 11.9495 48.5852 12.01 48.0663 12.01C47.4551 12.01 46.9506 11.9322 46.5528 11.7765C46.1549 11.6208 45.8349 11.3873 45.5928 11.076C45.3506 10.7646 45.1805 10.3812 45.0825 9.92569C44.9845 9.47019 44.9355 8.94263 44.9355 8.34299V0.31704L46.5441 0.0402832V2.82515ZM59.4277 7.32244C59.4277 8.0374 59.3239 8.68316 59.1164 9.25974C58.9088 9.83632 58.6176 10.3322 58.2429 10.7473C57.8681 11.1624 57.4212 11.4824 56.9023 11.7073C56.3834 11.9322 55.8184 12.0446 55.2072 12.0446C54.596 12.0446 54.031 11.9322 53.512 11.7073C52.9931 11.4824 52.5463 11.1624 52.1715 10.7473C51.7967 10.3322 51.5056 9.83632 51.298 9.25974C51.0904 8.68316 50.9866 8.0374 50.9866 7.32244C50.9866 6.61902 51.0904 5.97614 51.298 5.3938C51.5056 4.81145 51.7967 4.31272 52.1715 3.89758C52.5463 3.48244 52.9931 3.16245 53.512 2.93758C54.031 2.71271 54.596 2.60028 55.2072 2.60028C55.8184 2.60028 56.3834 2.71271 56.9023 2.93758C57.4212 3.16245 57.8681 3.48244 58.2429 3.89758C58.6176 4.31272 58.9088 4.81145 59.1164 5.3938C59.3239 5.97614 59.4277 6.61902 59.4277 7.32244ZM57.7499 7.32244C57.7499 6.30766 57.5221 5.50335 57.0666 4.90947C56.6111 4.3156 55.9913 4.01866 55.2072 4.01866C54.423 4.01866 53.8032 4.3156 53.3477 4.90947C52.8922 5.50335 52.6645 6.30766 52.6645 7.32244C52.6645 8.33722 52.8922 9.14154 53.3477 9.73542C53.8032 10.3293 54.423 10.6262 55.2072 10.6262C55.9913 10.6262 56.6111 10.3293 57.0666 9.73542C57.5221 9.14154 57.7499 8.33722 57.7499 7.32244Z" fill="#414660"/>
<path d="M1.60119 5.3205C0.642871 4.36049 0.0728507 3.08218 0 1.72974C1.3513 1.80474 2.62653 2.37726 3.5785 3.33631C4.53655 4.29654 5.10652 5.57475 5.17969 6.92715C3.82838 6.85211 2.55315 6.27957 1.60119 5.3205ZM9.35376 5.3205C8.40181 6.27957 7.12657 6.85211 5.77526 6.92715C5.84843 5.57475 6.4184 4.29654 7.37646 3.33631C8.32842 2.37726 9.60366 1.80474 10.955 1.72974C10.8821 3.08218 10.3121 4.36049 9.35376 5.3205ZM9.35376 9.09393C10.3121 10.0539 10.8821 11.3322 10.955 12.6847C9.60366 12.6097 8.32842 12.0372 7.37646 11.0781C6.4184 10.1179 5.84843 8.83967 5.77526 7.48728C7.12657 7.56232 8.40181 8.13486 9.35376 9.09393ZM1.60119 9.09393C2.55315 8.13486 3.84704 7.56174 5.19834 7.4867C5.12517 8.8391 4.53655 10.1179 3.5785 11.0781C2.62653 12.0372 1.3513 12.6097 0 12.6847C0.0728507 11.3322 0.642871 10.0539 1.60119 9.09393Z" fill="#6B5AED"/>
</svg>
